<?xml version="1.0" encoding="utf-8"?>
<!-- Generator: Adobe Illustrator 14.0.0, SVG Export Plug-In . SVG Version: 6.00 Build 43363)  -->
<!DOCTYPE svg PUBLIC "-//W3C//DTD SVG 1.1//EN" "http://www.w3.org/Graphics/SVG/1.1/DTD/svg11.dtd">
<svg version="1.1" id="Layer_1" xmlns="http://www.w3.org/2000/svg" xmlns:xlink="http://www.w3.org/1999/xlink" x="0px" y="0px"
	 width="2272px" height="1872px" viewBox="0 0 2272 1872" enable-background="new 0 0 2272 1872" xml:space="preserve">
<rect x="0" fill-rule="evenodd" clip-rule="evenodd" fill="#FFF9F3" width="2272" height="1872"/>
<g>
	<path fill-rule="evenodd" clip-rule="evenodd" fill="#E6DED4" d="M739.779,687.529c194.863,0,353.793-7.262,353.793-16.166
		c0-8.904-158.931-16.167-353.793-16.167c-194.862,0-353.793,7.262-353.793,16.167C385.986,680.267,544.917,687.529,739.779,687.529
		z"/>
	<path fill-rule="evenodd" clip-rule="evenodd" fill="#F68B3A" d="M1120.532,625.066l-16.895,13.481h-58.687
		c-12.086-91.793-130.186-92.442-140.492,3.37H563.9c-3.003-93.963-133.341-95.328-140.493-1.686
		c-40.231-2.32-67.657-16.777-81.804-43.812l3.999-64.252c-6.498-14.474-6.987-26.813-3.999-37.915v-8.207l70.245-14.324
		l9.782,10.11l96.032-36.23l8.891-17.693c91.852-18.017,181.425-18.773,268.536-0.844c9.073,5.237-12.977,12.999-3.904,18.234
		c37.164,21.445,105.451,40.364,142.617,61.809c19.636,1.791,32.528-2.353,35.568-15.166c49.737,12.385,97.572,29.457,141.38,56.45
		c4.294,9.771,4.599,18.032,0,24.435C1118.914,580.953,1120.68,601.199,1120.532,625.066z"/>
	<path fill-rule="evenodd" clip-rule="evenodd" fill="#2E656F" d="M526.553,427.911c1.112-2.213-105.139,38.503-114.705,43.813
		l9.782,10.11l96.032-36.23L526.553,427.911z"/>
	<path fill-rule="evenodd" clip-rule="evenodd" fill="#2E656F" d="M791.186,445.301c37.164,21.445,105.451,40.364,142.617,61.809
		c19.636,1.791,32.528-2.353,35.568-15.166c-77.804-41.068-174.281-64.877-174.281-64.877
		C804.162,432.304,782.113,440.066,791.186,445.301z"/>
	<path fill-rule="evenodd" clip-rule="evenodd" fill="#0D2429" d="M480.765,483.724c0,0,8.002,15.166,38.234,16.851
		c30.234,1.685,244.528,18.536,293.433,20.221s98.701,7.583,104.037,3.37c5.333-4.213,7.113-4.211-13.337-15.166
		c-20.453-10.952-101.37-61.506-195.623-67.403C613.256,435.699,517.662,445.604,480.765,483.724z"/>
	<path fill-rule="evenodd" clip-rule="evenodd" fill="#D02A27" d="M1045.406,549.439c6.669,3.792,30.234,23.592,40.903,24.434
		c10.67,0.842,24.441-1.044,24.441-1.044c4.599-6.403,4.294-14.664,0-24.435c0,0-36-0.639-48.448-2.747
		C1049.852,543.542,1038.738,545.647,1045.406,549.439z"/>
	<path fill-rule="evenodd" clip-rule="evenodd" fill="#D02A27" d="M1106.761,603.362c0,0,1.333,2.95-2.667,10.11
		c-4.003,7.162-17.785,15.587-17.785,10.955c0-4.634,5.337-21.486,6.669-24.224C1094.313,597.465,1106.761,603.362,1106.761,603.362
		z"/>
	<path fill-rule="evenodd" clip-rule="evenodd" fill="#C46B28" d="M704.846,529.64c0,0,28.676,2.106,34.455,2.106
		c5.78,0,9.115,0,9.115,0s-3.111,2.738-7.335,2.738c-4.225,0-5.114,0-5.114,0s-0.443,3.58-4.223,3.58s-8.448-0.421-9.559-2.317
		c-1.112-1.895-1.112-1.895-1.112-1.895S703.29,532.378,704.846,529.64z"/>
	<path fill-rule="evenodd" clip-rule="evenodd" fill="#C46B28" d="M721.74,526.27l16.228,0.21
		C737.968,526.48,727.297,519.95,721.74,526.27z"/>
	<path fill-rule="evenodd" clip-rule="evenodd" fill="#C46B28" d="M519.484,515.656c0,0,28.676,2.106,34.456,2.106
		c5.78,0,9.114,0,9.114,0s-3.112,2.74-7.335,2.74c-4.225,0-5.113,0-5.113,0s-0.445,3.58-4.223,3.58c-3.779,0-8.447-0.423-9.56-2.317
		c-1.112-1.896-1.112-1.896-1.112-1.896S517.928,518.396,519.484,515.656z"/>
	<path fill-rule="evenodd" clip-rule="evenodd" fill="#C46B28" d="M536.379,512.287l16.228,0.21
		C552.607,512.497,541.936,505.966,536.379,512.287z"/>
	<polygon fill-rule="evenodd" clip-rule="evenodd" fill="#2E656F" points="547.901,458.232 518.558,467.5 518.558,493.197 
		547.901,495.304 	"/>
	<path fill-rule="evenodd" clip-rule="evenodd" fill="#2E656F" d="M666.607,445.172c-37.483-0.684-74.406,2.859-110.704,11.162
		v37.914l113.595,6.952L666.607,445.172z"/>
	<path fill-rule="evenodd" clip-rule="evenodd" fill="#2E656F" d="M854.006,493.408c-50.955-28.494-103.315-38.801-156.052-44.234
		l0.222,52.025l155.83,12.429V493.408z"/>
	<path fill-rule="evenodd" clip-rule="evenodd" fill="#D02A27" d="M341.604,494.253c-2.988,11.103-2.499,23.441,3.999,37.915
		c9.555,2.321,42.021,1.048,53.135-2.322c11.114-3.371,18.229-9.691,13.337-10.954c-4.889-1.265-27.564-8.004-39.569-12.638
		C360.502,501.621,341.604,494.253,341.604,494.253z"/>
	<path fill-rule="evenodd" clip-rule="evenodd" fill="#D02A27" d="M364.949,606.938c-4.276-2.025-10.841-0.939-15.339,1.744
		c3.677,4.561,7.874,8.627,12.591,12.203c0,0,13.862,0.799,17.419-0.254C383.178,619.577,370.284,609.467,364.949,606.938z"/>
	<path fill-rule="evenodd" clip-rule="evenodd" fill="#C46B28" d="M566.799,616.627c0,0,149.383,0.841,181.838,0.841
		c32.457,0,100.034,3.372,113.373,6.32c13.338,2.948,29.343,5.055,29.343,5.055L884.018,624c0,0-70.914-17.272-181.174-17.695
		c-110.259-0.421-139.603,1.686-139.603,1.686L566.799,616.627z"/>
	<path fill-rule="evenodd" clip-rule="evenodd" fill="#616163" d="M495.66,684.451c31.712,0,57.576-24.507,57.576-54.556
		c0-30.05-25.864-54.558-57.576-54.558c-31.712,0-57.576,24.508-57.576,54.558C438.084,659.944,463.948,684.451,495.66,684.451z"/>
	<path fill-rule="evenodd" clip-rule="evenodd" fill="#D3D4D5" d="M495.66,668.651c22.528,0,40.903-17.41,40.903-38.756
		c0-21.348-18.375-38.758-40.903-38.758s-40.903,17.41-40.903,38.758C454.757,651.241,473.132,668.651,495.66,668.651z"/>
	<path fill-rule="evenodd" clip-rule="evenodd" fill="#383535" d="M563.9,641.918c-2.911-91.126-125.584-95.163-139.515-9.908
		l13.842,1.788c-0.097-1.289-0.145-2.591-0.145-3.902c0-30.13,25.777-54.556,57.576-54.556c31.8,0,57.578,24.426,57.578,54.556
		c0,3.484-0.345,6.893-1.004,10.196L563.9,641.918z"/>
	<path fill-rule="evenodd" clip-rule="evenodd" fill="#616163" d="M973.376,684.451c31.712,0,57.578-24.507,57.578-54.556
		c0-30.05-25.865-54.558-57.578-54.558s-57.578,24.508-57.578,54.558C915.799,659.944,941.664,684.451,973.376,684.451z"/>
	<path fill-rule="evenodd" clip-rule="evenodd" fill="#D3D4D5" d="M973.378,668.651c22.528,0,40.903-17.41,40.903-38.756
		c0-21.348-18.375-38.758-40.903-38.758c-22.528,0-40.903,17.41-40.903,38.758C932.475,651.241,950.85,668.651,973.378,668.651z"/>
	<path fill-rule="evenodd" clip-rule="evenodd" fill="#383535" d="M1044.951,638.548c-11.947-90.734-127.475-92.417-140.092,0.094
		l12.264,2.937c-0.866-3.764-1.324-7.673-1.324-11.684c0-30.13,25.779-54.556,57.578-54.556c31.798,0,57.578,24.426,57.578,54.556
		c0,5.755-0.94,11.301-2.683,16.508C1035.31,642.682,1044.951,638.548,1044.951,638.548z"/>
	<path fill-rule="evenodd" clip-rule="evenodd" fill="#C46B28" d="M862.67,556.379c0,0-346.337-30.753-388.129-32.437
		c-41.792-1.686-41.792-1.686-41.792-1.686l-9.338,4.213L862.67,556.379z"/>
	<path fill-rule="evenodd" clip-rule="evenodd" fill="#2E656F" d="M882.453,505.817c0,0-8.224-5.266-11.336-5.688
		c-3.112-0.421-4.446,7.373-4.446,12.428c0,5.057,8.669,6.951,12.003,5.898C882.009,517.401,886.454,510.029,882.453,505.817z"/>
</g>
<g>
	<path fill-rule="evenodd" clip-rule="evenodd" fill="#E6DED4" d="M1535.635,1062.398c208.786-0.535,378.042,8.563,378.042,20.313
		c0,11.753-169.256,21.711-378.042,22.242c-208.785,0.53-378.041-8.563-378.041-20.314
		C1157.594,1072.887,1326.85,1062.929,1535.635,1062.398z"/>
	<path fill-rule="evenodd" clip-rule="evenodd" fill="#C5DBE7" d="M1167.004,1058.867c0,0-9.002-0.514-18.475-3.598
		c-9.477-3.086-17.528-8.743-17.528-8.743l-2.607-34.962c0,0,1.422-2.06,4.264-3.602c2.843-1.541,4.976-3.086,4.976-3.086
		s0.473-69.67,1.42-74.556c0.949-4.886,11.135-12.598,16.817-15.425c5.687-2.829,86.929-15.939,107.303-18.768
		c20.37-2.829,25.107-3.086,25.107-3.086l23.687-3.855c0,0,57.796-53.475,82.431-66.843c24.631-13.37,39.79-14.911,66.32-17.482
		c26.528-2.572,137.856-4.63,155.858-4.113c17.999,0.513,26.054,3.598,30.792,10.797c4.737,7.199,13.264,79.185,13.264,79.185
		l254.865-4.115c0,0,10.421,26.737,10.421,49.36c0,22.624-4.737,58.104-4.737,58.104l-7.582,7.198l-6.155,35.478l-64.901,5.143
		l-9.948,7.199l-3.316-8.226c-1.648-113.119-144.577-103.366-138.33,8.74l-11.37,0.512c-4.66,0.21-359.561,8.229-359.561,8.229
		l-9.476,4.111C1310.354,940.229,1164.349,935.496,1167.004,1058.867z"/>
	<path fill-rule="evenodd" clip-rule="evenodd" fill="#383535" d="M1333.751,923.632c0,0-0.948-6.172-0.948-12.856
		s3.788-18.511,10.896-24.68c7.105-6.169,59.688-51.418,78.163-59.131c18.479-7.714,116.065-8.227,145.438-10.283
		c29.369-2.057,47.844-4.115,53.055,7.712c1.985,4.504,10.956,84.084,5.69,85.355c-4.265,1.028-224.554,11.311-224.554,11.311
		C1390.122,922.603,1333.751,923.632,1333.751,923.632z"/>
	<path fill-rule="evenodd" clip-rule="evenodd" fill="#2E656F" d="M1356.084,909.854c0,0-0.804-4.605-0.804-9.592
		s3.213-13.811,9.236-18.414c6.023-4.603,50.591-38.366,66.248-44.119c15.658-5.754,98.368-6.139,123.262-7.673
		c24.891-1.534,40.552-3.069,44.966,5.755c1.684,3.361,9.284,62.738,4.821,63.685c-3.613,0.766-190.313,8.44-190.313,8.44
		C1403.863,909.087,1356.084,909.854,1356.084,909.854z"/>
	<rect x="1482.978" y="824.391" fill-rule="evenodd" clip-rule="evenodd" fill="#383535" width="20.844" height="85.87"/>
	<path fill-rule="evenodd" clip-rule="evenodd" fill="#D04227" d="M1136.68,935.709c2.004,0.096,24.162,0.771,29.372,0.514
		c5.212-0.257,8.054-2.313,8.054,2.057c0,4.373-2.134,11.057-2.134,11.057s-9.948,26.736-13.028,32.908
		c-3.076,6.168-14.391,6.193-21.17,6.182C1130.994,988.412,1136.68,935.709,1136.68,935.709z"/>
	<path fill-rule="evenodd" clip-rule="evenodd" fill="#96B1C0" d="M1660.632,890.73c0,0-0.013,85.852-0.013,111.047
		s-0.948,31.879-0.948,31.879l-270.501,9.256l278.082-6.17l-2.005-146.087L1660.632,890.73z"/>
	<polygon fill-rule="evenodd" clip-rule="evenodd" fill="#96B1C0" points="1686.669,902.025 1919.108,897.286 1920.598,902.416 
		1688.327,905.11 	"/>
	<path fill-rule="evenodd" clip-rule="evenodd" fill="#383535" d="M1658.006,869.981c1.574,11.851,2.626,20.749,2.626,20.749
		l4.615-0.075l250.25-4.04v-21.872L1658.006,869.981z"/>
	<path fill-rule="evenodd" clip-rule="evenodd" fill="#96B1C0" d="M1453.541,930.045h23.533c2.192,0,3.983,1.791,3.983,3.982v0.002
		c0,2.192-1.791,3.985-3.983,3.985h-23.533c-2.193,0-3.986-1.793-3.986-3.985v-0.002
		C1449.555,931.836,1451.348,930.045,1453.541,930.045z"/>
	<path fill-rule="evenodd" clip-rule="evenodd" fill="#96B1C0" d="M1590.802,930.045h23.534c2.192,0,3.983,1.791,3.983,3.982v0.002
		c0,2.192-1.791,3.985-3.983,3.985h-23.534c-2.192,0-3.983-1.793-3.983-3.985v-0.002
		C1586.818,931.836,1588.609,930.045,1590.802,930.045z"/>
	<polygon fill-rule="evenodd" clip-rule="evenodd" fill="#96B1C0" points="1500.726,916.344 1503.063,1040.383 1497.875,1040.5 
		1497.651,916.492 	"/>
	<path fill-rule="evenodd" clip-rule="evenodd" fill="#383535" d="M1829.277,1040.872c-0.003-0.152-0.014-0.298-0.017-0.444
		c0.006,0.398,0.017,0.794,0.017,1.195c0,1.917-0.085,3.813-0.236,5.687c2.146,1.092,3.553,1.788,3.553,1.788L1829.277,1040.872
		L1829.277,1040.872z M1829.174,1037.873c-1.943-36.023-31.711-64.637-68.15-64.637c-37.692,0-68.249,30.62-68.249,68.387
		c0,2.306,0.116,4.586,0.336,6.833l-2.163,1.156C1684.756,938.514,1825.048,927.959,1829.174,1037.873z"/>
	<path fill-rule="evenodd" clip-rule="evenodd" fill="#616163" d="M1238.27,1110.009c36.885,0,66.971-30.723,66.971-68.386
		c0-37.666-30.086-68.387-66.971-68.387c-36.889,0-66.975,30.721-66.975,68.387
		C1171.295,1079.286,1201.381,1110.009,1238.27,1110.009z"/>
	<path fill-rule="evenodd" clip-rule="evenodd" fill="#D3D4D5" d="M1238.27,1088.888c25.496,0,46.289-21.23,46.289-47.265
		c0-26.033-20.793-47.268-46.289-47.268s-46.291,21.234-46.291,47.268C1191.979,1067.657,1212.773,1088.888,1238.27,1088.888z"/>
	<path fill-rule="evenodd" clip-rule="evenodd" fill="#383535" d="M1303.297,1058.02l7.244,4.445
		c-0.188-122.235-146.192-126.969-143.537-3.598l5.688-3.289c-0.914-4.508-1.396-9.172-1.396-13.955
		c0-27.51,15.914-51.226,38.852-62.077c8.045-4.046,17.008-6.31,26.455-6.31c0.271,0,0.537,0.009,0.81,0.012
		c0.285-0.003,0.569-0.012,0.858-0.012c36.986,0,66.971,30.62,66.971,68.387C1305.24,1047.274,1304.563,1052.767,1303.297,1058.02z"
		/>
	<path fill-rule="evenodd" clip-rule="evenodd" fill="#616163" d="M1761.026,1110.009c37.593,0,68.251-30.723,68.251-68.386
		c0-37.666-30.658-68.387-68.251-68.387c-37.591,0-68.252,30.721-68.252,68.387
		C1692.774,1079.286,1723.436,1110.009,1761.026,1110.009z"/>
	<path fill-rule="evenodd" clip-rule="evenodd" fill="#D3D4D5" d="M1761.023,1088.888c25.985,0,47.178-21.23,47.178-47.265
		c0-26.033-21.192-47.268-47.178-47.268c-25.981,0-47.171,21.234-47.171,47.268
		C1713.853,1067.657,1735.042,1088.888,1761.023,1088.888z"/>
	<path fill-rule="evenodd" clip-rule="evenodd" fill="#D04227" d="M1923.524,914.631c0,0-24.139,1.793-28.4,1.793
		c-4.265,0-6.159,2.057-6.159,2.057s0.712,8.741,1.186,13.626c0.473,4.885,8.286,23.396,13.261,32.395
		c4.978,8.999,20.059,9.789,20.059,9.789S1934.918,930.309,1923.524,914.631z"/>
	<path fill-rule="evenodd" clip-rule="evenodd" fill="#383535" d="M1913.599,1001.278l-6.136,35.364
		c4.132-0.713,17.574-3.171,21.766-5.555c4.974-2.826,5.92-23.908,5.92-28.796c0-4.884-12.067-0.233-17.76-4.614L1913.599,1001.278z
		"/>
	<path fill-rule="evenodd" clip-rule="evenodd" fill="#383535" d="M1171.703,1020.81c-21.072-4.385-34.07-15.933-34.07-15.933
		s-2.132,1.545-4.974,3.086c-2.843,1.542-4.265,3.602-4.265,3.602l2.607,34.962c0,0,8.052,5.657,17.528,8.743
		c9.473,3.084,18.475,3.598,18.475,3.598C1166.693,1044.434,1168.416,1031.752,1171.703,1020.81z"/>
</g>
<g>
	<path fill-rule="evenodd" clip-rule="evenodd" fill="#E6DED4" d="M1555.24,528.313c-116.937,30.184-190.611,83.49-164.561,119.066
		c26.054,35.574,141.966,39.942,258.903,9.759c116.934-30.184,190.611-83.49,164.561-119.064
		C1788.091,502.5,1672.178,498.131,1555.24,528.313z"/>
	<g>
		<path fill-rule="evenodd" clip-rule="evenodd" fill="#42B8A0" d="M1366.019,632.633c0,0,173.282,27.251,185.105,25.71
			c11.83-1.543,28.282-28.794,32.909-39.592c4.628-10.8,23.916-50.392,39.341-58.619c15.425-8.228,32.909-3.085,36.507,11.312
			c3.602,14.398,3.598,44.736,1.542,52.446c-2.054,7.712-2.054,7.712-2.054,7.712s98.206-50.388,104.894-53.475
			c6.684-3.084,17.48-49.36,29.822-67.357c12.339-17.998,26.222-14.396,29.308,2.571c3.087,16.968,3.087,16.968,3.087,16.968
			s3.598-28.024-2.057-37.537c-5.657-9.511-16.455-12.598-16.711-15.167c-0.259-2.571,0.256-50.647-2.314-64.275
			c-2.571-13.625-13.116-22.11-17.744-35.992c-4.624-13.883-13.88-34.967-32.391-45.764s-146.542-11.312-189.736-7.197
			c-43.191,4.112-77.642,16.967-87.924,24.68c-10.285,7.712-102.837,118.265-105.923,123.406
			c-3.083,5.143-19.537,10.284-23.139,25.71c-3.598,15.425-1.541,25.195-1.541,25.195s-1.03,1.799-1.542,7.197
			c-0.515,5.4-0.515,5.4-0.515,5.4s-11.057,9.513-15.939,23.652C1324.117,573.758,1317.177,625.691,1366.019,632.633z"/>
		<path fill-rule="evenodd" clip-rule="evenodd" fill="#15373D" d="M1646.257,463.209c0,0,10.797-2.058,17.996-5.657
			c7.199-3.598,9.255-6.169,9.255-6.169s34.451,5.657,42.677,2.056c8.229-3.599,13.368-17.481-0.512-23.137
			c-13.883-5.656-40.108-5.656-40.108-5.656s-4.627-0.002-7.714-6.172c-3.083-6.17-3.598-10.797-3.598-10.797
			S1652.941,439.043,1646.257,463.209z"/>
		<path fill-rule="evenodd" clip-rule="evenodd" fill="#2E656F" d="M1717.651,431.23l54.581-24.066c0,0,0-6.684-1.027-13.37
			c-1.029-6.684-20.57-43.706-30.853-49.362c-10.285-5.656-35.48-5.656-50.905,2.058c-15.425,7.712-25.194,61.187-25.194,61.187
			s0.515,4.627,3.598,10.797c3.087,6.17,7.714,6.172,7.714,6.172s26.226,0,40.108,5.656
			C1716.382,430.59,1717.039,430.899,1717.651,431.23z"/>
		<path fill-rule="evenodd" clip-rule="evenodd" fill="#329682" d="M1767.089,419.504l-16.198,7.455c0,0,5.398,3.086,11.057,0.772
			C1767.604,425.417,1770.432,422.846,1767.089,419.504z"/>
		<path fill-rule="evenodd" clip-rule="evenodd" fill="#15373D" d="M1660.908,344.432c0,0-153.745,0-161.971,1.03
			c-8.226,1.028-17.997,10.797-25.195,15.425c-7.195,4.628-64.784,76.613-70.442,82.784c-5.654,6.169,14.91,13.368,32.395,13.368
			s151.685,2.057,166.082-4.114C1616.172,446.755,1642.396,407.677,1660.908,344.432z"/>
		<path fill-rule="evenodd" clip-rule="evenodd" fill="#D04227" d="M1515.392,529.024c0,0,30.357-38.052,61.2-38.822
			c30.839-0.772,46.264,8.483,32.381,19.281C1595.093,520.282,1523.621,545.99,1515.392,529.024z"/>
		<path fill-rule="evenodd" clip-rule="evenodd" fill="#D04227" d="M1368.849,524.91c8.741-2.571,13.884-19.539,13.884-30.336
			c0-10.8-11.053-22.11-11.053-22.11c-3.083,5.143-19.537,10.284-23.139,25.71c-3.598,15.425-1.541,25.195-1.541,25.195
			S1360.109,527.479,1368.849,524.91z"/>
		<path fill-rule="evenodd" clip-rule="evenodd" fill="#D04227" d="M1333.884,568.36c6.798,1.321,14.398-16.969,18.512-22.625
			c4.116-5.656-7.452-9.769-7.452-9.769s-11.057,9.513-15.939,23.652c-0.379,1.096-0.771,2.419-1.146,3.931
			C1329.791,566.053,1331.873,567.968,1333.884,568.36z"/>
		<path fill-rule="evenodd" clip-rule="evenodd" fill="#D04227" d="M1565.48,559.25c0,0-11.356,9.782-15.969,19.631
			c-4.611,9.85,1.267,19.917,4.524,21.534c3.255,1.618,11.461-1.083,14.864-4.832c3.407-3.75,3.649-4.482,3.649-4.482
			S1578.762,571.495,1565.48,559.25z"/>
		<path fill-rule="evenodd" clip-rule="evenodd" fill="#329682" d="M1373.999,530.569c0,0,41.134,8.996,77.641,10.796
			c36.507,1.799,105.152,2.827,116.72,2.572c11.571-0.258,15.943-1.801,15.943-1.801s-4.628,7.201-8.485,9.513
			c-3.856,2.313-83.558,3.342-115.692,1.541c-32.136-1.799-88.957-12.855-91.014-13.368S1361.916,529.796,1373.999,530.569z"/>
		<path fill-rule="evenodd" clip-rule="evenodd" fill="#329682" d="M1372.972,619.263c0,0,8.226-6.169,17.996-7.197
			c9.771-1.028,90.495,10.798,102.321,12.342c11.827,1.541,19.026,14.91,19.026,14.91S1415.133,636.748,1372.972,619.263z"/>
		<path fill-rule="evenodd" clip-rule="evenodd" fill="#616163" d="M1377.855,660.401c16.121,0,30.021-8.323,36.391-20.323
			c-27.553-4.194-48.228-7.446-48.228-7.446c-12.659-1.799-21.571-6.621-27.743-13.024c-0.347,1.855-0.527,3.76-0.527,5.701
			C1337.748,644.689,1355.704,660.401,1377.855,660.401z"/>
		<path fill-rule="evenodd" clip-rule="evenodd" fill="#616163" d="M1608.982,707.707c25.558,0,46.277-34.878,46.277-77.899
			c0-32.017-11.478-59.522-27.88-71.5c-1.344,0.512-2.682,1.119-4.006,1.825c-15.425,8.227-34.713,47.819-39.341,58.619
			c-3.047,7.113-11.23,21.372-19.842,30.712C1569.366,682.968,1587.46,707.707,1608.982,707.707z"/>
		<path fill-rule="evenodd" clip-rule="evenodd" fill="#D3D4D5" d="M1629.165,587.13c11.997,0,20.79,22.387,19.637,50.003
			c-1.149,27.619-11.807,50.006-23.806,50.006c-11.998,0-20.79-22.387-19.641-50.006
			C1606.509,609.517,1617.166,587.13,1629.165,587.13z"/>
		<path fill-rule="evenodd" clip-rule="evenodd" fill="#15373D" d="M1661.423,623.891c2.056-7.71,2.06-38.048-1.542-52.446
			c-3.29-13.163-18.184-18.588-32.501-13.137c16.399,11.974,27.873,39.468,27.88,71.474l4.109,1.821L1661.423,623.891z"/>
		<path fill-rule="evenodd" clip-rule="evenodd" fill="#329682" d="M1792.676,470.665c2.196,0,3.986-5.542,3.986-12.34
			c0-6.797-1.79-12.34-3.986-12.34c-2.192,0-3.983,5.542-3.983,12.34C1788.692,465.122,1790.483,470.665,1792.676,470.665z"/>
		<path fill-rule="evenodd" clip-rule="evenodd" fill="#329682" d="M1803.347,480.177c0,0-17.74,10.798-24.169,27.253
			c-6.424,16.455-13.108,47.82-18.766,52.704c-5.654,4.885-88.697,51.418-88.697,51.418l2.315-4.627
			c0,0,79.697-45.762,83.555-50.903c3.856-5.145,10.025-45.507,19.796-60.675C1782.031,488.123,1796.265,468.376,1803.347,480.177z"
			/>
		<path fill-rule="evenodd" clip-rule="evenodd" fill="#329682" d="M1664.253,457.552c0,0,6.777,118.535,1.8,119.292
			C1661.079,577.603,1664.253,457.552,1664.253,457.552z"/>
		<path fill-rule="evenodd" clip-rule="evenodd" fill="#15373D" d="M1823.393,513.342c-2.283-12.557-10.479-17.793-19.589-12.372
			c8.565,5.269,15.557,16.006,19.485,29.695l3.19-0.354L1823.393,513.342z"/>
		<path fill-rule="evenodd" clip-rule="evenodd" fill="#D3D4D5" d="M1807.431,518.741c7.879,0,13.958,18.014,13.575,40.234
			c-0.382,22.22-7.079,40.234-14.958,40.234c-7.882,0-13.961-18.014-13.579-40.234
			C1792.851,536.754,1799.548,518.741,1807.431,518.741z"/>
		<path fill-rule="evenodd" clip-rule="evenodd" fill="#616163" d="M1806.048,599.209c-7.882,0-13.961-18.014-13.579-40.234
			c0.382-22.221,7.079-40.234,14.962-40.234c7.879,0,13.958,18.014,13.575,40.234
			C1820.624,581.195,1813.927,599.209,1806.048,599.209L1806.048,599.209z M1791.779,614.893c19.308,0,34.962-26.303,34.962-58.746
			c0-9.132-1.24-17.775-3.452-25.483c-3.929-13.687-10.92-24.426-19.485-29.695c-3.2,1.904-6.513,5.122-9.719,9.801
			c-12.342,17.998-23.139,64.273-29.822,67.357c-0.651,0.3-2.167,1.048-4.372,2.152
			C1765.37,600.688,1777.585,614.893,1791.779,614.893z"/>
		<path fill-rule="evenodd" clip-rule="evenodd" fill="#2E656F" d="M1645.587,351.124c0,0-135.522,0-142.773,0.907
			c-7.254,0.907-15.864,9.518-22.209,13.598c-6.348,4.079-57.109,67.535-62.098,72.972c-4.983,5.439,13.146,11.785,28.558,11.785
			c15.408,0,133.705,1.813,146.396-3.625C1606.152,441.321,1629.268,406.874,1645.587,351.124z"/>
		<path fill-rule="evenodd" clip-rule="evenodd" fill="#15373D" d="M1733.798,351.908c9.398,5.168,27.256,39.002,28.194,45.111
			c0.938,6.108,0.938,12.217,0.938,12.217l-47.527,20.958c0.088,0.036,0.179,0.073,0.27,0.108c0.709,0.288,1.366,0.599,1.979,0.928
			l54.581-24.066c0,0,0-6.684-1.027-13.37c-1.029-6.684-20.57-43.706-30.853-49.362c-10.285-5.656-35.48-5.656-50.905,2.058
			c-15.425,7.712-25.194,61.187-25.194,61.187s0.045,0.389,0.178,1.09c1.325-6.811,9.91-48.51,22.848-54.979
			C1701.375,346.738,1724.4,346.738,1733.798,351.908z"/>
		<path fill-rule="evenodd" clip-rule="evenodd" fill="#ED5E41" d="M1570.318,517.476c4.197,0,7.617-3.282,7.617-7.306
			c0-4.023-3.42-7.307-7.617-7.307c-4.193,0-7.616,3.284-7.616,7.307C1562.702,514.194,1566.125,517.476,1570.318,517.476z"/>
		<path fill-rule="evenodd" clip-rule="evenodd" fill="#ED5E41" d="M1363.888,506.906c1.969,0,3.575-3.141,3.575-6.995
			s-1.606-6.995-3.575-6.995s-3.575,3.141-3.575,6.995S1361.919,506.906,1363.888,506.906z"/>
		<path fill-rule="evenodd" clip-rule="evenodd" fill="#329682" d="M1772.232,407.164c0,0,5.604,61.501,5.916,71.761
			c0.311,10.259,0,21.451,0,21.451l-3.73-23.627l-5.366-68.182l3.154-3.02L1772.232,407.164z"/>
		<polygon fill-rule="evenodd" clip-rule="evenodd" fill="#B3E0DB" points="1487.774,615.094 1389.844,603.902 1389.844,581.205 
			1487.774,590.532 		"/>
		<polygon fill-rule="evenodd" clip-rule="evenodd" fill="#329682" points="1486.217,548.562 1403.209,541.101 1403.209,499.13 
			1414.132,492.823 1477.512,495.089 1486.217,505.037 		"/>
		<polygon fill-rule="evenodd" clip-rule="evenodd" fill="#216456" points="1410.979,505.348 1410.979,500.84 1476.576,504.104 
			1476.576,509.234 		"/>
		<polygon fill-rule="evenodd" clip-rule="evenodd" fill="#216456" points="1410.979,515.607 1410.979,511.1 1476.576,514.364 
			1476.576,519.494 		"/>
		<polygon fill-rule="evenodd" clip-rule="evenodd" fill="#216456" points="1410.979,525.869 1410.979,521.36 1476.576,524.625 
			1476.576,529.754 		"/>
		<polygon fill-rule="evenodd" clip-rule="evenodd" fill="#216456" points="1410.979,536.128 1410.979,531.622 1476.576,534.884 
			1476.576,540.014 		"/>
	</g>
</g>
<g>
	<path fill-rule="evenodd" clip-rule="evenodd" fill="#E6DED4" d="M675.683,1141.464c175.428,0,318.508-23.688,318.508-52.728
		c0-29.043-143.081-52.729-318.508-52.729c-175.427,0-318.508,23.686-318.508,52.729
		C357.175,1117.775,500.256,1141.464,675.683,1141.464z"/>
	<g>
		<path fill-rule="evenodd" clip-rule="evenodd" fill="#ED453D" d="M338.763,1107.545c0,0,22.859,8.07,133.583,12.775
			s176.443,4.705,202.874,4.705s35.717-5.379,35.717-5.379s6.43-62.527,22.146-86.734c15.715-24.204,50.718-46.395,60.719-2.018
			c10,44.375,4.286,78.668,4.286,78.668l167.871-36.98c0,0,3.216-11.764,3.216-16.474c0-4.705,0-11.765,3.572-26.222
			c3.57-14.455,8.213-42.695,23.573-50.092c15.358-7.396,18.93,24.541,18.93,36.98c0,12.438,1.428,37.652,1.428,37.652
			s15.002-16.474,16.074-22.859c1.07-6.391-4.646-3.699-4.288-12.775c0.358-9.078,1.43-30.258,1.43-40.006
			c0-9.75-6.43-23.535-6.43-23.535s-4.644-20.842-25.359-40.677c-20.716-19.836-56.791-50.428-121.082-64.547
			c-64.291-14.121-219.303-0.673-237.876,1.68c-18.574,2.354-39.292,11.768-56.435,19.163
			c-17.144,7.397-64.291,43.705-64.291,43.705s-13.93-2.69-22.858-0.335c-8.93,2.353-10.358,5.714-10.358,9.078
			c0,3.361,2.856,8.404,2.856,8.404s-54.647,10.086-78.936,21.852c-24.287,11.766-55.003,44.714-61.077,56.143
			c-6.071,11.432-8.571,32.611-9.643,38.664c-1.072,6.049,0.714,9.41,0.714,9.41s0,8.07,0,13.786c0,5.713,2.858,12.436,2.858,12.436
			S333.047,1093.762,338.763,1107.545z"/>
		<path fill-rule="evenodd" clip-rule="evenodd" fill="#193E45" d="M492.704,937.773c0,0,93.58,2.353,138.583,2.689
			c45.002,0.335,121.439,0.672,137.154-4.707c15.716-5.38,15.716-5.715,16.788-8.406c1.072-2.689,27.502-58.16,27.502-61.857
			c0-3.698-21.073-3.026-45.719-3.698c-24.645-0.672-157.573,3.355-168.229,5.042C588.129,868.525,508.776,924.326,492.704,937.773z
			"/>
		<path fill-rule="evenodd" clip-rule="evenodd" fill="#2E656F" d="M795.941,870.2c0,0-151.084,2.689-165.729,4.37
			c-14.644,1.681-35.001,13.111-50.003,22.525c-15.002,9.411-48.933,33.956-41.789,35.971c7.142,2.018,198.585-0.337,215.729-4.035
			C771.296,925.332,802.727,874.905,795.941,870.2z"/>
		<path fill-rule="evenodd" clip-rule="evenodd" fill="#193E45" d="M795.943,951.219c0,0,15-77.322,42.145-87.072
			c27.146-9.749,70.721,4.706,88.579,10.421s40.359,30.257,47.146,31.938c6.787,1.68,6.787,1.68,6.787,1.68
			S982.028,924.326,795.943,951.219z"/>
		<path fill-rule="evenodd" clip-rule="evenodd" fill="#2E656F" d="M865.234,868.012c0,0,9.642,23.702,13.214,40.007
			c3.572,16.306,5,21.348,5,21.348s-52.503,10.085-60.005,11.599c-7.5,1.513-12.858-16.811-11.786-22.188
			C812.729,913.397,818.622,860.953,865.234,868.012z"/>
		<path fill-rule="evenodd" clip-rule="evenodd" fill="#2E656F" d="M883.626,871.542c0,0,10.537,22.188,14.822,34.626
			c4.286,12.44,5,18.827,5,18.827s31.075-6.22,35.183-7.9c4.106-1.681-11.786-25.55-14.108-28.576
			C922.201,885.495,903.985,872.047,883.626,871.542z"/>
		<path fill-rule="evenodd" clip-rule="evenodd" fill="#BB342C" d="M718.075,980.969c0,0-130.725,19.838-136.438,21.182
			c-5.716,1.344-12.502,8.74-12.502,11.428c0,2.691,5.358,1.01,6.429,8.407c1.072,7.397,3.572,14.79,3.572,14.79l-25.358,10.758
			c0,0,96.436-18.824,117.152-28.239c20.716-9.411,20.716-9.411,20.716-9.411L718.075,980.969z"/>
		<path fill-rule="evenodd" clip-rule="evenodd" fill="#FCEE2B" d="M702.716,990.048c0,0-69.649,11.597-88.58,15.8
			c-18.93,4.204-31.074,9.414-31.074,9.414s0.716,9.58,1.966,13.615s2.322,4.705,2.322,4.705s43.217-5.043,69.469-13.614
			c26.252-8.572,33.753-12.944,33.753-12.944L702.716,990.048z"/>
		<path fill-rule="evenodd" clip-rule="evenodd" fill="#BB342C" d="M376.264,980.969c0,0,7.858,16.139,16.608,19.5
			c8.752,3.362,12.5,28.24,12.5,28.24s-15.357,0.336-24.109-1.514c-8.75-1.849-12.502-3.533-12.502-3.533s5.18,6.391,7.502,8.744
			c2.322,2.354,3.214,3.53,3.214,3.53s-11.608-7.06-16.072-15.804c-4.466-8.737-4.822-15.127-1.608-21.514
			C365.012,992.23,369.656,985.17,376.264,980.969z"/>
		<path fill-rule="evenodd" clip-rule="evenodd" fill="#FCEE2B" d="M371.264,992.567c0,0,2.697,10.59,11.26,15.884
			c8.563,5.295,11.599,10.004,11.599,10.004s-5.178,4.2-10.358,3.527c-5.178-0.671-16.25-1.678-18.394-7.73
			S365.548,994.248,371.264,992.567z"/>
		<path fill-rule="evenodd" clip-rule="evenodd" fill="#BB342C" d="M410.019,999.961c0,0,4.644,8.07,11.428,9.414
			c6.786,1.344,105.723,4.035,115.724,3.361c10-0.671,18.93-8.404,18.93-8.404S452.879,1004.332,410.019,999.961z"/>
		<path fill-rule="evenodd" clip-rule="evenodd" fill="#BB342C" d="M416.089,1027.867c0,0,48.219,4.031,71.435,4.031
			s55.719-2.016,55.719-2.016s-9.286,13.783-14.287,15.465c-5.001,1.681-102.507-1.682-108.223-3.362
			C415.019,1040.305,416.089,1027.867,416.089,1027.867z"/>
		<path fill-rule="evenodd" clip-rule="evenodd" fill="#FCEE2B" d="M339.119,1071.575c0,5.713,2.858,12.436,2.858,12.436
			c6.608,6.729,30.179,16.135,34.823,16.135s4.286-9.751,5.716-15.13c1.026-3.871,2.796-4.605,3.707-4.716
			c-1.205-0.095-4.419-0.661-10.851-3.688c-8.572-4.035-36.253-18.822-36.253-18.822V1071.575z"/>
		<path fill-rule="evenodd" clip-rule="evenodd" fill="#FCEE2B" d="M546.101,1082.998c0,0,8.93-5.043,37.502-9.411
			c28.574-4.372,80.365-9.415,86.079-9.415c5.715,0,16.787,25.549,16.787,25.549s-17.144,15.13-34.645,16.137
			c-17.502,1.011-67.149,3.365-73.577,2.018c-6.43-1.344-21.789-18.154-26.432-19.835c-4.643-1.681-13.572-1.007-13.572-1.007
			S541.101,1083.166,546.101,1082.998z"/>
		<path fill-rule="evenodd" clip-rule="evenodd" fill="#BB342C" d="M890.775,956.592l9.464-3.193
			C900.24,953.398,893.275,948.187,890.775,956.592z"/>
		<path fill-rule="evenodd" clip-rule="evenodd" fill="#BB342C" d="M887.561,961.971c0,0,1.606,1.346,4.82,1.512
			c3.216,0.169,16.788-3.529,16.788-3.529s-5.178,4.035-8.394,5.211c-3.214,1.177-4.108,1.85-2.678,2.521
			c1.428,0.673,1.606,0.84,1.606,0.84S891.311,968.189,887.561,961.971z"/>
		<path fill-rule="evenodd" clip-rule="evenodd" fill="#BB342C" d="M963.281,936.59l9.466-3.195
			C972.747,933.395,965.783,928.184,963.281,936.59z"/>
		<path fill-rule="evenodd" clip-rule="evenodd" fill="#BB342C" d="M960.068,941.969c0,0,1.606,1.344,4.821,1.512
			c3.216,0.169,16.786-3.529,16.786-3.529s-5.178,4.033-8.392,5.21c-3.214,1.176-4.108,1.848-2.678,2.521
			c1.428,0.672,1.606,0.841,1.606,0.841S963.816,948.187,960.068,941.969z"/>
		<path fill-rule="evenodd" clip-rule="evenodd" fill="#BB342C" d="M808.354,1088.37c0,0,119.027-25.212,132.243-30.257
			c13.214-5.042,20.358-22.523,20.358-22.523s-11.43,16.475-26.789,20.843c-15.358,4.372-125.368,26.226-125.368,26.226
			L808.354,1088.37z"/>
		<path fill-rule="evenodd" clip-rule="evenodd" fill="#BB342C" d="M902.016,933.409c0,0,11.253,17.714,11.967,22.757
			c0.712,5.043,0,64.551,0,70.263c0,5.716-5.358,26.562-6.072,29.249c-0.714,2.691-1.511,7.06-1.511,7.06s3.297-23.364,4.188-28.407
			c0.894-5.042,1.072-9.747,1.072-12.775c0-3.025,0.356-62.531,0-64.715c-0.358-2.185-11.61-23.035-11.61-23.035L902.016,933.409z"
			/>
		<path fill-rule="evenodd" clip-rule="evenodd" fill="#FCEE2B" d="M1001.965,918.474c17.44,18.573,21.497,36.778,21.497,36.778
			s0.393,0.841,0.982,2.253c0,0,2.939-12.938-0.633-22.353C1020.24,925.74,1006.904,917.929,1001.965,918.474z"/>
		<path fill-rule="evenodd" clip-rule="evenodd" fill="#D3D4D5" d="M996.845,1087.443c8.558,0,15.537-18.122,15.537-40.34
			c0-22.22-6.979-40.342-15.537-40.342s-15.538,18.122-15.538,40.342C981.308,1069.321,988.288,1087.443,996.845,1087.443z"/>
		<path fill-rule="evenodd" clip-rule="evenodd" fill="#383535" d="M996.318,979.795c-3.598,1.732-6.606,4.608-9.152,8.181
			c0.336-0.026,0.676-0.039,1.018-0.039c11.808,0,22.675,16.497,27.263,39.259c-0.122-3.85-0.2-7.49-0.2-10.42
			C1015.248,1004.336,1011.676,972.398,996.318,979.795z"/>
		<path fill-rule="evenodd" clip-rule="evenodd" fill="#616163" d="M987.166,987.976c-8.323,11.687-11.688,30.843-14.421,41.911
			c-3.572,14.457-3.572,21.517-3.572,26.222c0,2.184-0.692,5.878-1.434,9.22c5.005,20.655,15.272,35.229,26.371,35.229
			c13.156,0,22.99-20.48,23.605-47.291c-0.652,0.738-1.04,1.162-1.04,1.162s-0.835-14.734-1.229-27.232
			c-4.588-22.762-15.456-39.259-27.263-39.259C987.842,987.937,987.502,987.949,987.166,987.976L987.166,987.976z M996.844,1006.762
			c8.582,0,15.538,18.061,15.538,40.344c0,22.281-6.956,40.342-15.538,40.342c-8.58,0-15.536-18.061-15.536-40.342
			C981.308,1024.822,988.264,1006.762,996.844,1006.762z"/>
		<path fill-rule="evenodd" clip-rule="evenodd" fill="#383535" d="M940.629,1078.162l2.997,7.1c0,0,7.322,14.456,14.465,16.811
			c7.144,2.351,36.019-1.516,36.019-1.516c-11.098,0-21.365-14.573-26.371-35.229c-0.858,3.867-1.782,7.254-1.782,7.254
			L940.629,1078.162z"/>
		<path fill-rule="evenodd" clip-rule="evenodd" fill="#BB342C" d="M399.1,1083.072c0,0-0.356,3.192-0.714,6.555
			c-0.358,3.363-8.573,16.305-9.645,18.154c-1.07,1.85,87.867,7.733,118.226,7.733c30.36,0,40.717-0.674,40.717-0.674
			s-6.426-9.073-11.428-17.481c-5-8.402-5-8.402-5-8.402S428.39,1091.308,399.1,1083.072z"/>
		<path fill-rule="evenodd" clip-rule="evenodd" fill="#383535" d="M472.345,1120.32c-38.442-1.635-66.292-3.672-86.273-5.638
			c19.991,39.849,96.688,27.021,101.863,6.282C482.841,1120.762,477.645,1120.547,472.345,1120.32z"/>
		<path fill-rule="evenodd" clip-rule="evenodd" fill="#193E45" d="M809.669,929.938c0,0-2.144-10.084,13.038-13.951
			c15.18-3.867,46.058-1.247,51.969,0.168c5.908,1.414,6.608,13.783,3.036,19.666c-3.572,5.884-10.536,8.07-14.824,8.07
			c-4.286,0-40.717,2.018-46.61,1.512c-5.894-0.504-8.214-0.672-8.214-0.672s-5.894-9.58-5.18-10.926
			S809.669,929.938,809.669,929.938z"/>
		<path fill-rule="evenodd" clip-rule="evenodd" fill="#616163" d="M766.946,1030.84c-19.685,0-36.808,25.962-38.243,57.986
			c-1.437,32.028,13.356,57.991,33.043,57.991c19.685,0,36.806-25.963,38.242-57.991
			C801.425,1056.802,786.63,1030.84,766.946,1030.84z"/>
		<path fill-rule="evenodd" clip-rule="evenodd" fill="#D3D4D5" d="M766.045,1047.944c-13.726,0-25.945,19.2-27.291,42.88
			c-1.344,23.684,8.694,42.884,22.421,42.884c13.728,0,25.945-19.2,27.291-42.884
			C789.811,1067.145,779.774,1047.944,766.045,1047.944z"/>
		<path fill-rule="evenodd" clip-rule="evenodd" fill="#383535" d="M793.8,1030.895c-9.432-41.851-41.102-24.496-57.858-2.083
			c5.99-2.636,14.142-4.146,26.565-2.643c16.522,2.001,24.53,15.295,24.53,15.295c6.433,7.808,10.946,19.376,12.476,32.839
			C799.009,1061.967,797.453,1047.104,793.8,1030.895z"/>
		<path fill-rule="evenodd" clip-rule="evenodd" fill="#383535" d="M733.081,1032.912c-15.716,24.207-22.146,86.734-22.146,86.734
			s-1.809,1.049-6.103,2.219c0.491,1.869,1.067,3.602,1.729,5.176c8.849,21.001,15.666,22.52,39.185,23.549
			c10.151,0.444,24.5-2.06,27.946-7.027c-3.787,2.109-7.811,3.255-11.946,3.255c-19.687,0-34.48-25.963-33.045-57.991
			c1.437-32.024,18.56-57.986,38.245-57.986c7.66,0,14.581,3.931,20.091,10.624c0,0-8.007-13.294-24.53-15.295
			c-12.423-1.503-20.575,0.007-26.565,2.643C734.932,1030.166,733.975,1031.535,733.081,1032.912z"/>
		<path fill-rule="evenodd" clip-rule="evenodd" fill="#193E45" d="M495.562,914.239c-8.93,2.353-10.358,5.714-10.358,9.078
			c0,3.361,2.856,8.404,2.856,8.404s3.183,1.9,8.164,3.215c5.424-4.252,13.889-10.513,23.697-17.545l-1.501-2.816
			C518.42,914.575,504.488,911.885,495.562,914.239z"/>
	</g>
</g>
<g>
	<path fill-rule="evenodd" clip-rule="evenodd" fill="#E6DED4" d="M723.612,1569.488c166.575,0,302.434-8.604,302.434-19.152
		s-135.859-19.152-302.434-19.152c-166.574,0-302.434,8.604-302.434,19.152S557.039,1569.488,723.612,1569.488z"/>
	<path fill-rule="evenodd" clip-rule="evenodd" fill="#FEC14E" d="M428.918,1511.827c-6.922-73.34,111.602-103.555,127.131,2.371
		l313.487,9.476c5.512-103.711,127.151-100.815,131.871-3.161c14.453,4.256,30.558,5.482,48.168,3.948
		c5.147-28.881,6.449-54.043-4.738-67.12c-1.516-36.054-36.64-54.23-87.65-63.959l-70.277-17.374
		c-53.547-42.702-105.171-66.796-155.56-78.963c-85.092-8.364-169.437-4.012-253.476,5.528l-2.368,11.846
		c-16.583,29.48-49.157,55.209-49.748,88.438l2.369,21.318c-12.138,10.234-18.395,25.04-18.952,44.222
		C408.804,1491.506,414.024,1507.673,428.918,1511.827z"/>
	<path fill-rule="evenodd" clip-rule="evenodd" fill="#2E656F" d="M779.122,1322.11c30.797,22.637,101.47,53.172,92.389,67.91
		l-344.284-19.742c-11.799-17.422-11.89-37.451,4.738-61.196C628.056,1299.247,713.568,1300.358,779.122,1322.11z"/>
	<path fill-rule="evenodd" clip-rule="evenodd" fill="#383535" d="M531.965,1309.082c-16.628,23.745-16.537,43.774-4.738,61.196
		l0.058,0.008c-9.953-16.776-9.211-35.94,6.462-58.438c95.587-9.838,180.653-8.728,245.864,13.028
		c27.947,20.651,88.913,47.874,92.532,63.684c3.969-15.224-63.209-44.534-93.021-66.449
		C713.568,1300.358,628.056,1299.247,531.965,1309.082z"/>
	<polygon fill-rule="evenodd" clip-rule="evenodd" fill="#383535" points="677.568,1305.274 652.047,1304.28 657.519,1374.619 
		691.081,1376.594 	"/>
	<path fill-rule="evenodd" clip-rule="evenodd" fill="#383535" d="M827.133,1387.475l44.378,2.546
		c0.292-0.47,0.499-0.959,0.632-1.461c-2.081-9.09-23.12-21.953-45.938-35.169c1.376,5.263,3.262,11.331,3.262,16.438
		C829.467,1376.52,829.496,1382.034,827.133,1387.475z"/>
	<path fill-rule="evenodd" clip-rule="evenodd" fill="#ED453D" d="M439.307,1364.994c-7.687,11.875-13.306,24.239-13.548,37.863
		l2.369,21.318c0,0,26.852-27.844,28.825-30.408c1.975-2.568-0.591-8.686-1.579-12.436
		C454.509,1378.045,446.676,1368.397,439.307,1364.994z"/>
	<path fill-rule="evenodd" clip-rule="evenodd" fill="#ED453D" d="M977.724,1409.953c1.381,1.383,36.717,28.427,40.271,31.192
		c3.554,2.763,4.343,2.367,11.45,5.525c7.106,3.16,15.392,10.67,15.392,10.67c-0.699-16.658-8.577-29.502-21.879-39.457
		c-11.678-3.151-22.399-5.907-24.705-6.351C993.122,1410.546,976.341,1408.573,977.724,1409.953z"/>
	<path fill-rule="evenodd" clip-rule="evenodd" fill="#D49D33" d="M1038.527,1501.352c4.783,0,8.686-5.412,8.686-12.044
		s-3.902-12.041-8.686-12.041c-4.785,0-8.687,5.409-8.687,12.041S1033.743,1501.352,1038.527,1501.352z"/>
	<path fill-rule="evenodd" clip-rule="evenodd" fill="#383535" d="M997.069,1520.896l0.79,14.41c0,0,11.845,2.371,20.728,1.976
		c8.883-0.395,29.217-2.37,30.4-6.317c1.186-3.948,0.588-6.503,0.588-6.503c-17.61,1.534-33.715,0.308-48.168-3.948
		L997.069,1520.896z"/>
	<path fill-rule="evenodd" clip-rule="evenodd" fill="#D49D33" d="M706.973,1401.659c5.002,0,9.081-4.08,9.081-9.08
		c0-5.004-4.079-9.084-9.081-9.084s-9.082,4.08-9.082,9.084C697.891,1397.579,701.971,1401.659,706.973,1401.659z"/>
	<path fill-rule="evenodd" clip-rule="evenodd" fill="#D49D33" d="M687.717,1388.579l33.278,1.6
		c1.681,0.082,3.052,1.522,3.052,3.206v0.69c0,1.685-1.371,2.995-3.052,2.914l-33.278-1.6c-1.679-0.081-3.052-1.522-3.052-3.206
		v-0.689C684.665,1389.81,686.038,1388.498,687.717,1388.579z"/>
	<path fill-rule="evenodd" clip-rule="evenodd" fill="#D49D33" d="M543.56,1392.452c5.001,0,9.082-4.076,9.082-9.08
		c0-5-4.081-9.08-9.082-9.08s-9.081,4.08-9.081,9.08C534.479,1388.376,538.559,1392.452,543.56,1392.452z"/>
	<path fill-rule="evenodd" clip-rule="evenodd" fill="#D49D33" d="M524.304,1379.375l33.278,1.598
		c1.681,0.081,3.054,1.521,3.054,3.206v0.692c0,1.685-1.373,2.992-3.054,2.911l-33.278-1.596c-1.679-0.081-3.052-1.522-3.052-3.206
		v-0.693C521.252,1380.604,522.625,1379.295,524.304,1379.375z"/>
	<path fill-rule="evenodd" clip-rule="evenodd" fill="#616163" d="M491.899,1562.053c29.575,0,53.695-24.12,53.695-53.693
		c0-29.577-24.12-53.696-53.695-53.696s-53.696,24.119-53.696,53.696C438.203,1537.933,462.324,1562.053,491.899,1562.053z"/>
	<path fill-rule="evenodd" clip-rule="evenodd" fill="#D3D4D5" d="M491.899,1545.472c20.441,0,37.112-16.671,37.112-37.112
		c0-20.44-16.671-37.112-37.112-37.112s-37.114,16.672-37.114,37.112C454.785,1528.801,471.458,1545.472,491.899,1545.472z"/>
	<path fill-rule="evenodd" clip-rule="evenodd" fill="#383535" d="M491.897,1454.663c29.656,0,53.696,24.042,53.696,53.696
		c0,1.321-0.048,2.63-0.141,3.925l10.596,1.914c-15.529-105.926-134.053-75.711-127.131-2.371c0,0,4.134-0.702,9.315-1.622
		c-0.021-0.612-0.031-1.228-0.031-1.846C438.203,1478.705,462.243,1454.663,491.897,1454.663z"/>
	<path fill-rule="evenodd" clip-rule="evenodd" fill="#616163" d="M936.075,1562.053c28.924,0,52.513-23.589,52.513-52.512
		c0-28.922-23.589-52.511-52.513-52.511c-28.921,0-52.511,23.589-52.511,52.511C883.563,1538.464,907.154,1562.053,936.075,1562.053
		z"/>
	<path fill-rule="evenodd" clip-rule="evenodd" fill="#D3D4D5" d="M936.075,1545.837c19.991,0,36.296-16.305,36.296-36.296
		c0-19.99-16.306-36.293-36.296-36.293c-19.989,0-36.295,16.303-36.295,36.293C899.78,1529.532,916.085,1545.837,936.075,1545.837z"
		/>
	<path fill-rule="evenodd" clip-rule="evenodd" fill="#383535" d="M1001.407,1520.513c-4.7-97.247-125.345-100.523-131.794,1.865
		l16.365,2.954c-1.569-4.983-2.414-10.288-2.414-15.791c0-29,23.509-52.511,52.511-52.511c29.001,0,52.511,23.511,52.511,52.511
		c0,3.954-0.436,7.805-1.263,11.51l10.029,5.017l-0.283-5.172L1001.407,1520.513z"/>
	<path fill-rule="evenodd" clip-rule="evenodd" fill="#D49D33" d="M674.301,1379.197c0,0,5.931,29.843,7.511,42.515
		c1.579,12.672,6.712,84.089,6.712,84.089l-2.566,0.383c0,0-4.244-62.014-5.625-75.453c-1.383-13.436-8.695-51.688-8.695-51.688
		L674.301,1379.197z"/>
	<polygon fill-rule="evenodd" clip-rule="evenodd" fill="#D49D33" points="588.733,1507.171 742.122,1507.761 746.267,1505.788 
		575.112,1505.195 	"/>
	<path fill-rule="evenodd" clip-rule="evenodd" fill="#D49D33" d="M883.865,1427.218c5.219,0,9.476-1.685,9.476-3.75
		c0-2.067-4.257-3.751-9.476-3.751c-5.219,0-9.476,1.684-9.476,3.751C874.389,1425.533,878.646,1427.218,883.865,1427.218z"/>
	<path fill-rule="evenodd" clip-rule="evenodd" fill="#383535" d="M869.536,1523.674l-313.487-9.476c0,0-2.064,10.528-0.571,14.505
		c1.493,3.98,280.052,7.957,302.933,6.963C881.293,1534.672,869.536,1523.674,869.536,1523.674z"/>
</g>
<g>
	<path fill-rule="evenodd" clip-rule="evenodd" fill="#E6DED4" d="M1542.122,1574.686c174.791,0,317.356-11.619,317.356-25.865
		s-142.565-25.865-317.356-25.865c-174.795,0-317.357,11.619-317.357,25.865S1367.327,1574.686,1542.122,1574.686z"/>
	<g>
		<path fill-rule="evenodd" clip-rule="evenodd" fill="#919883" d="M1229.117,1448.999c0,0,0.516-45.902,5.509-54.225
			c4.994-8.322,6.104-8.88,6.104-8.88l8.877-0.554c0,0-1.111-10.541,6.104-13.87c7.213-3.329,133.165-19.421,133.165-19.421
			s38.838-92.661,75.459-113.189c36.623-20.532,172.557-26.633,230.815-28.298c58.26-1.664,104.87,15.535,113.747,20.528
			c8.877,4.994,14.981,30.519,22.193,49.383s14.428,69.358,18.31,92.104c3.886,22.75,6.104,68.247,6.104,68.247h12.76l0.557,19.975
			l-32.18,3.329c0,0,0.553-44.943-40.507-53.266s-46.054,81.563-46.054,81.563l-173.668,4.993c0,0-4.439-64.917-48.271-80.452
			c-43.835-15.535-55.789,22.034-59.364,35.51c-3.571,13.478-8.018,37.335-8.018,37.335L1229.117,1448.999z"/>
		<path fill-rule="evenodd" clip-rule="evenodd" fill="#2E656F" d="M1413.835,1326.803c0,0,33.29-61.031,38.006-66.857
			c4.719-5.826,23.307-8.602,63.256-12.209c39.949-3.604,78.788-1.107,84.893,0.558c6.104,1.664,2.497,12.763,1.943,20.249
			c-0.557,7.491-13.316,52.991-20.531,54.935C1574.188,1325.417,1468.765,1327.639,1413.835,1326.803z"/>
		<path fill-rule="evenodd" clip-rule="evenodd" fill="#2E656F" d="M1624.401,1253.287c0,0-17.757,69.354-18.867,73.241
			c-1.107,3.882,11.651,10.266,21.363,12.205c9.709,1.943,84.614-3.051,84.614-3.051s-4.437-71.022-4.437-76.569
			c0-5.551-0.833-5.826-0.833-5.826S1646.594,1251.898,1624.401,1253.287z"/>
		<path fill-rule="evenodd" clip-rule="evenodd" fill="#2E656F" d="M1727.603,1254.395c0,0,9.155,67.415,11.931,75.462
			c2.772,8.045,11.373,8.598,14.703,8.877c3.329,0.278,63.81-2.497,63.81-2.497s5.27-5.547,5.548-10.541
			c0.274-4.993-13.874-55.763-13.874-55.763s-3.329-8.323-16.642-11.377C1779.758,1255.505,1727.603,1254.395,1727.603,1254.395z"/>
		<path fill-rule="evenodd" clip-rule="evenodd" fill="#656C57" d="M1249.607,1385.341l180.869,0.835c0,0-0.278-5.825-18.864-8.322
			c-18.588-2.496-148.98-0.278-152.585-0.558c-3.607-0.274-3.831-4.41,4.466-7.616c-4.129,0.758-6.882,1.373-7.782,1.791
			C1248.496,1374.8,1249.607,1385.341,1249.607,1385.341z"/>
		<path fill-rule="evenodd" clip-rule="evenodd" fill="#656C57" d="M1441.008,1385.341c0,0-1.668-12.206,21.64-17.199
			c23.304-4.994,369.531-12.206,369.531-12.206l17.222,16.643L1441.008,1385.341z"/>
		<path fill-rule="evenodd" clip-rule="evenodd" fill="#656C57" d="M1725.094,1347.334c0,0,1.386,77.681,1.386,85.45
			c0,7.766-1.386,20.528-1.386,20.528S1721.765,1363.427,1725.094,1347.334z"/>
		<path fill-rule="evenodd" clip-rule="evenodd" fill="#383535" d="M1379.293,1490.221c-42.184-1.205-86.906-2.587-117.315-3.491
			c-2.632,7.199-4.077,15.011-4.077,23.175c0,35.853,27.824,64.914,62.148,64.914s62.152-29.062,62.152-64.914
			C1382.201,1503.042,1381.181,1496.43,1379.293,1490.221z"/>
		<path fill-rule="evenodd" clip-rule="evenodd" fill="#383535" d="M1645.726,1495.428l-69.313,1.992c0,0-0.696-10.191-4.265-23.466
			c-2.36,2.367-4.453,5.01-6.233,7.866c2.853,8.012,4.42,16.733,4.42,25.859c0,8.024-1.211,15.734-3.442,22.924
			c7.902,11.627,21.134,19.25,36.128,19.25c24.207,0,43.832-19.875,43.832-44.389
			C1646.853,1502.012,1646.464,1498.653,1645.726,1495.428z"/>
		<path fill-rule="evenodd" clip-rule="evenodd" fill="#616163" d="M1797.411,1538.134c-13.592,0-24.612-18.181-24.612-40.61
			c0-22.429,11.021-40.609,24.612-40.609c13.591,0,24.612,18.181,24.612,40.609
			C1822.023,1519.953,1811.002,1538.134,1797.411,1538.134L1797.411,1538.134z M1831.895,1496.863c0-38-22.112-68.804-49.384-68.804
			c-6.811,0-13.294,1.92-19.194,5.392c-11.309,24.285-13.235,58.976-13.235,58.976l-16.872,0.485
			c-0.055,1.309-0.081,2.626-0.081,3.951c0,37.996,22.108,68.8,49.383,68.8C1809.782,1565.663,1831.895,1534.859,1831.895,1496.863z
			"/>
		<path fill-rule="evenodd" clip-rule="evenodd" fill="#383535" d="M1827.573,1468.686l8.997-6.746
			c-0.519-9.106-4.832-43.861-40.436-51.076c-15.551-3.151-25.927,7.781-32.818,22.588c5.9-3.472,12.384-5.392,19.194-5.392
			C1802.576,1428.06,1819.847,1444.737,1827.573,1468.686z"/>
		<path fill-rule="evenodd" clip-rule="evenodd" fill="#616163" d="M1506.201,1578.423c35.324,0,64.134-31.778,64.134-70.743
			c0-38.966-28.81-70.744-64.134-70.744c-35.321,0-64.134,31.778-64.134,70.744
			C1442.067,1546.645,1470.88,1578.423,1506.201,1578.423z"/>
		<path fill-rule="evenodd" clip-rule="evenodd" fill="#D3D4D5" d="M1528.659,1556.784c18.948,0,34.402-23.181,34.402-51.602
			s-15.454-51.602-34.402-51.602c-18.947,0-34.398,23.181-34.398,51.602S1509.712,1556.784,1528.659,1556.784z"/>
		<path fill-rule="evenodd" clip-rule="evenodd" fill="#383535" d="M1572.148,1473.954c-5.437-20.228-17.542-47.608-44.007-56.986
			c-26.487-9.389-42.958,9.326-52.634,28.582c9.115-5.492,19.575-8.614,30.693-8.614c27.148,0,50.354,18.604,59.714,44.885
			c2.176,6.107,3.604,12.633,4.161,19.431l6.337-3.831C1576.413,1497.42,1575.717,1487.229,1572.148,1473.954z"/>
		<path fill-rule="evenodd" clip-rule="evenodd" fill="#C6CFB4" d="M1808.897,1231.091c-8.877-4.993-55.487-22.192-113.747-20.528
			c-58.259,1.665-194.192,7.766-230.815,28.298C1528.403,1233.578,1775.763,1238.261,1808.897,1231.091z"/>
		<path fill-rule="evenodd" clip-rule="evenodd" fill="#626A51" d="M1211.883,1448.04l0.554,31.627c0,0,6.657,6.101,18.863,6.101
			c12.21,0,213.066,8.326,221.389,6.662c8.323-1.668,15.535-6.662,15.535-6.662l0.554-33.29c0,0-32.733,3.328-87.11,2.774
			C1327.291,1454.698,1211.883,1448.04,1211.883,1448.04z"/>
		<path fill-rule="evenodd" clip-rule="evenodd" fill="#626A51" d="M1750.081,1492.427c0,0,1.927-34.69,13.235-58.976
			c6.892-14.807,17.268-25.739,32.818-22.588c35.604,7.215,39.917,41.97,40.436,51.076c0.08,1.396,0.071,2.189,0.071,2.189
			l32.18-3.329l-0.557-19.975h-12.76l-11.114,0.003c0,0-4.993-33.848-47.165-44.943c-42.167-11.098-53.262,37.729-57.148,48.826
			c-3.883,11.099-3.883,15.534-3.883,15.534l-143.154,4.994c0,0-21.082-49.38-54.377-62.695
			c-33.288-13.317-71.576,9.43-85.445,36.063l-8.068,15.489c15.276-0.768,23.628-1.618,23.628-1.618l-0.158,9.592
			c7.694-22.241,25.198-57.266,59.522-45.102c26.465,9.378,38.57,36.759,44.007,56.986c3.568,13.274,4.265,23.466,4.265,23.466
			l69.313-1.992l87.483-2.516L1750.081,1492.427z"/>
		<path fill-rule="evenodd" clip-rule="evenodd" fill="#D3D4D5" d="M1308.579,1514.626c0,20.524,13.196,37.164,29.476,37.164
			c16.283,0,29.479-16.64,29.479-37.164c0-9.295-2.707-17.796-7.183-24.312c-14.398-0.495-29.221-1.029-43.467-1.548
			C1311.742,1495.458,1308.579,1504.574,1308.579,1514.626z"/>
		<path fill-rule="evenodd" clip-rule="evenodd" fill="#383535" d="M1720.103,1354.825l-23.857,0.832c0,0-2.496,3.884,2.219,5.548
			c4.718,1.664,20.253,0.557,20.253,0.557S1723.432,1358.154,1720.103,1354.825z"/>
		<path fill-rule="evenodd" clip-rule="evenodd" fill="#383535" d="M1261.969,1486.756c-16.504-0.596-28.02-0.988-30.669-0.988
			l13.614,12.578l13.923,0.263C1259.526,1494.515,1260.582,1490.551,1261.969,1486.756z"/>
		<path fill-rule="evenodd" clip-rule="evenodd" fill="#383535" d="M1443.521,1492.641c-12.607-0.085-36.568-0.769-64.008-1.675
			c1.748,5.991,2.688,12.352,2.688,18.938c0,0.232-0.003,0.466-0.007,0.699l17.919,0.178l9.948,3.98l19.398-4.476l6.966,19.897
			l13.676,11.811c-5.116-10.165-8.034-21.862-8.034-34.314C1442.067,1502.521,1442.568,1497.488,1443.521,1492.641z"/>
		<path fill-rule="evenodd" clip-rule="evenodd" fill="#383535" d="M1827.92,1469.779c7.164,20.594,16.394,42.994,16.394,42.994
			l10.443,2.982c0,0,0-3.979-1.489-20.892c-0.875-9.877-3.61-22.812-5.739-31.862l-10.887,1.127c0,0,0.009-0.794-0.071-2.189
			l-8.997,6.746C1827.69,1469.048,1827.807,1469.41,1827.92,1469.779z"/>
		<path fill-rule="evenodd" clip-rule="evenodd" fill="#656C57" d="M1257.473,1438.655c8.424,0,15.296-11.341,15.296-25.247
			c0-13.902-6.872-25.243-15.296-25.243c-8.426,0-15.298,11.341-15.298,25.243
			C1242.175,1427.314,1249.047,1438.655,1257.473,1438.655z"/>
		<path fill-rule="evenodd" clip-rule="evenodd" fill="#ED453D" d="M1257.502,1432.227c6.493,0,11.789-8.598,11.789-19.143
			c0-10.543-5.296-19.142-11.789-19.142c-6.496,0-11.791,8.599-11.791,19.142
			C1245.711,1423.629,1251.006,1432.227,1257.502,1432.227z"/>
		<path fill-rule="evenodd" clip-rule="evenodd" fill="#F59290" d="M1256.725,1417.515c2.125,0,3.857-2.124,3.857-4.725
			c0-2.604-1.732-4.729-3.857-4.729c-2.121,0-3.854,2.125-3.854,4.729C1252.871,1415.391,1254.604,1417.515,1256.725,1417.515z"/>
		<path fill-rule="evenodd" clip-rule="evenodd" fill="#656C57" d="M1407.943,1438.655c8.424,0,15.296-11.341,15.296-25.247
			c0-13.902-6.872-25.243-15.296-25.243c-8.423,0-15.295,11.341-15.295,25.243
			C1392.648,1427.314,1399.521,1438.655,1407.943,1438.655z"/>
		<path fill-rule="evenodd" clip-rule="evenodd" fill="#ED453D" d="M1408.145,1435.002c7.257,0,13.177-9.223,13.177-20.531
			c0-11.306-5.92-20.528-13.177-20.528c-7.258,0-13.177,9.223-13.177,20.528C1394.968,1425.779,1400.887,1435.002,1408.145,1435.002
			z"/>
		<path fill-rule="evenodd" clip-rule="evenodd" fill="#F59290" d="M1407.198,1417.515c2.121,0,3.854-2.124,3.854-4.725
			c0-2.604-1.732-4.729-3.854-4.729c-2.124,0-3.856,2.125-3.856,4.729C1403.342,1415.391,1405.074,1417.515,1407.198,1417.515z"/>
		<path fill-rule="evenodd" clip-rule="evenodd" fill="#656C57" d="M1287.943,1398.611l80.083,0.25v4.974l-79.834-0.498
			C1288.192,1403.337,1288.205,1398.611,1287.943,1398.611z"/>
		<path fill-rule="evenodd" clip-rule="evenodd" fill="#656C57" d="M1287.943,1408.561l80.083,0.249v4.975l-79.834-0.498
			C1288.192,1413.286,1288.205,1408.561,1287.943,1408.561z"/>
		<path fill-rule="evenodd" clip-rule="evenodd" fill="#656C57" d="M1287.943,1418.509l80.083,0.249v4.975l-79.834-0.495
			C1288.192,1423.237,1288.205,1418.509,1287.943,1418.509z"/>
		<path fill-rule="evenodd" clip-rule="evenodd" fill="#656C57" d="M1287.943,1428.461l80.083,0.246v4.974l-79.834-0.495
			C1288.192,1433.186,1288.205,1428.461,1287.943,1428.461z"/>
	</g>
</g>
</svg>
